<?xml version="1.0" encoding="UTF-8"?>
<svg xmlns="http://www.w3.org/2000/svg" xmlns:xlink="http://www.w3.org/1999/xlink" width="160px" height="46px" viewBox="0 0 160 46" version="1.1">
<g id="surface1">
<path style=" stroke:none;fill-rule:nonzero;fill:rgb(99.607843%,99.607843%,99.607843%);fill-opacity:1;" d="M 0 0 C 52.800781 0 105.601562 0 160 0 C 160 15.179688 160 30.359375 160 46 C 107.199219 46 54.398438 46 0 46 C 0 30.820312 0 15.640625 0 0 Z M 0 0 "/>
<path style=" stroke:none;fill-rule:nonzero;fill:rgb(27.058825%,26.666668%,85.09804%);fill-opacity:1;" d="M 32.589844 15.84375 C 32.714844 15.84375 32.839844 15.84375 32.96875 15.839844 C 33.660156 15.871094 34.089844 16.03125 34.566406 16.238281 C 34.648438 16.273438 34.648438 16.273438 34.738281 16.3125 C 34.925781 16.394531 35.109375 16.472656 35.296875 16.554688 C 35.425781 16.613281 35.554688 16.667969 35.683594 16.722656 C 36.027344 16.871094 36.367188 17.019531 36.707031 17.167969 C 37.050781 17.320312 37.402344 17.46875 37.75 17.621094 C 38.429688 17.914062 39.113281 18.210938 39.792969 18.507812 C 39.910156 18.449219 40.027344 18.390625 40.144531 18.335938 C 40.207031 18.300781 40.273438 18.269531 40.339844 18.238281 C 40.46875 18.171875 40.597656 18.109375 40.726562 18.046875 C 40.898438 17.960938 41.074219 17.875 41.25 17.789062 C 41.324219 17.75 41.324219 17.75 41.402344 17.714844 C 42.644531 17.140625 44.78125 16.5 46.605469 16.378906 C 47.226562 16.371094 47.226562 16.371094 47.550781 16.496094 C 48.28125 17.085938 47.707031 17.910156 47.292969 18.507812 C 46.808594 19.164062 46.03125 19.777344 44.984375 20.296875 C 44.777344 20.398438 44.777344 20.398438 44.582031 20.53125 C 44.675781 20.566406 44.765625 20.605469 44.863281 20.644531 C 45.207031 20.789062 45.546875 20.933594 45.890625 21.082031 C 46.039062 21.144531 46.183594 21.207031 46.332031 21.265625 C 48.097656 22.003906 48.097656 22.003906 48.292969 22.484375 C 48.292969 22.554688 48.292969 22.554688 48.289062 22.625 C 48.289062 22.667969 48.289062 22.714844 48.289062 22.761719 C 48.113281 23.199219 47.414062 23.46875 46.71875 23.765625 C 46.605469 23.8125 46.492188 23.863281 46.378906 23.910156 C 46.074219 24.042969 45.769531 24.175781 45.460938 24.308594 C 45.140625 24.445312 44.820312 24.582031 44.5 24.722656 C 43.964844 24.953125 43.425781 25.1875 42.886719 25.417969 C 42.265625 25.683594 41.644531 25.953125 41.023438 26.21875 C 40.492188 26.453125 39.957031 26.683594 39.421875 26.910156 C 39.101562 27.050781 38.785156 27.1875 38.464844 27.324219 C 38.167969 27.453125 37.867188 27.582031 37.566406 27.710938 C 37.457031 27.757812 37.347656 27.804688 37.238281 27.851562 C 35.988281 28.394531 35.988281 28.394531 35.070312 28.460938 C 34.253906 28.457031 33.652344 28.433594 33.050781 28.179688 C 32.34375 27.820312 32.238281 27.359375 32.253906 26.902344 C 32.253906 26.859375 32.253906 26.8125 32.253906 26.765625 C 32.308594 25.675781 33.117188 24.636719 34.792969 23.808594 C 34.863281 23.769531 34.9375 23.734375 35.011719 23.695312 C 36.476562 22.964844 36.476562 22.964844 37.292969 22.910156 C 37.257812 22.820312 37.222656 22.730469 37.1875 22.640625 C 36.640625 22.621094 36.398438 22.671875 35.964844 22.8125 C 34.804688 23.164062 33.628906 23.1875 32.253906 23.183594 C 32.140625 23.183594 32.027344 23.1875 31.910156 23.1875 C 31.265625 23.183594 30.636719 23.171875 30 23.132812 C 29.636719 23.113281 29.316406 23.097656 28.957031 23.132812 C 28.742188 23.214844 28.585938 23.304688 28.414062 23.402344 C 28.03125 23.589844 27.4375 23.667969 26.875 23.71875 C 26.640625 23.722656 26.402344 23.726562 26.167969 23.726562 C 26.0625 23.726562 26.0625 23.726562 25.953125 23.726562 C 25.722656 23.726562 25.488281 23.730469 25.257812 23.730469 C 25.175781 23.730469 25.097656 23.730469 25.015625 23.730469 C 24.59375 23.730469 24.167969 23.730469 23.746094 23.730469 C 23.3125 23.734375 22.878906 23.734375 22.445312 23.734375 C 22.109375 23.738281 21.773438 23.738281 21.4375 23.738281 C 21.277344 23.738281 21.117188 23.738281 20.957031 23.738281 C 19.632812 23.746094 18.507812 23.671875 17.5 23.269531 C 16.90625 23.011719 16.457031 22.792969 16.457031 22.414062 C 20.753906 22.414062 25.050781 22.414062 29.480469 22.414062 C 29.480469 22.386719 29.480469 22.355469 29.480469 22.328125 C 29.382812 22.324219 29.285156 22.324219 29.183594 22.324219 C 28.171875 22.3125 27.160156 22.296875 26.148438 22.285156 C 25.964844 22.28125 25.78125 22.277344 25.597656 22.277344 C 23.683594 22.25 21.992188 22.144531 20.625 21.515625 C 20.300781 21.320312 20.273438 21.148438 20.261719 20.914062 C 20.386719 20.632812 20.929688 20.429688 21.382812 20.238281 C 21.445312 20.210938 21.507812 20.183594 21.570312 20.15625 C 21.703125 20.097656 21.835938 20.042969 21.964844 19.988281 C 22.167969 19.902344 22.367188 19.816406 22.566406 19.730469 C 22.695312 19.675781 22.824219 19.617188 22.953125 19.5625 C 23.011719 19.539062 23.070312 19.511719 23.128906 19.488281 C 23.480469 19.335938 23.839844 19.195312 24.21875 19.0625 C 24.394531 19 24.394531 19 24.578125 18.890625 C 24.757812 18.796875 24.917969 18.726562 25.136719 18.648438 C 25.714844 18.433594 26.246094 18.199219 26.78125 17.964844 C 26.972656 17.882812 27.164062 17.800781 27.355469 17.71875 C 27.894531 17.484375 28.4375 17.246094 28.980469 17.011719 C 29.3125 16.867188 29.648438 16.722656 29.980469 16.578125 C 30.105469 16.523438 30.234375 16.46875 30.359375 16.414062 C 30.535156 16.335938 30.710938 16.261719 30.890625 16.183594 C 30.941406 16.160156 30.992188 16.136719 31.046875 16.113281 C 31.554688 15.894531 31.871094 15.84375 32.589844 15.84375 Z M 32.589844 15.84375 "/>
<path style=" stroke:none;fill-rule:nonzero;fill:rgb(50.196081%,51.764709%,96.078432%);fill-opacity:1;" d="M 47.292969 16.398438 C 47.746094 16.566406 47.792969 16.742188 47.839844 16.992188 C 47.917969 18.230469 46.683594 19.476562 44.792969 20.394531 C 44.714844 20.433594 44.636719 20.472656 44.554688 20.515625 C 44.136719 20.722656 44.136719 20.722656 43.957031 20.796875 C 43.890625 20.796875 43.820312 20.796875 43.75 20.796875 C 43.753906 20.847656 43.753906 20.898438 43.757812 20.949219 C 43.785156 21.773438 43.417969 22.238281 42.234375 22.894531 C 42.175781 22.925781 42.117188 22.957031 42.058594 22.992188 C 41.636719 23.21875 41.636719 23.21875 41.28125 23.253906 C 41.003906 23.21875 40.910156 23.183594 40.730469 23.089844 C 40.675781 23.003906 40.675781 23.003906 40.652344 22.910156 C 40.644531 22.875 40.636719 22.839844 40.628906 22.804688 C 40.621094 22.769531 40.613281 22.734375 40.605469 22.699219 C 40.597656 22.664062 40.589844 22.628906 40.578125 22.589844 C 40.558594 22.503906 40.539062 22.414062 40.519531 22.328125 C 40.269531 22.433594 40.023438 22.539062 39.796875 22.65625 C 39.582031 22.730469 39.582031 22.730469 39.296875 22.726562 C 38.886719 22.675781 38.660156 22.601562 38.332031 22.484375 C 38.214844 22.445312 38.097656 22.40625 37.980469 22.363281 C 37.917969 22.34375 37.859375 22.324219 37.796875 22.300781 C 37.410156 22.171875 37.003906 22.050781 36.605469 21.929688 C 36.152344 21.789062 36.152344 21.789062 36.042969 21.742188 C 35.964844 21.484375 36.199219 21.292969 36.457031 21.070312 C 36.34375 21.085938 36.230469 21.101562 36.117188 21.117188 C 35.964844 21.140625 35.816406 21.160156 35.664062 21.183594 C 35.550781 21.199219 35.550781 21.199219 35.4375 21.21875 C 34.980469 21.28125 34.644531 21.308594 34.167969 21.25 C 34.097656 21.21875 34.027344 21.1875 33.957031 21.15625 C 34.058594 20.714844 35.074219 20.183594 35.839844 19.910156 C 36.519531 19.703125 37.226562 19.5625 38.039062 19.5 C 38.402344 19.453125 38.519531 19.417969 38.742188 19.285156 C 38.839844 19.207031 38.9375 19.128906 39.03125 19.050781 C 40.476562 17.839844 43.160156 16.914062 46.078125 16.429688 C 46.488281 16.378906 46.867188 16.363281 47.292969 16.398438 Z M 47.292969 16.398438 "/>
<path style=" stroke:none;fill-rule:nonzero;fill:rgb(27.843139%,27.450982%,85.490197%);fill-opacity:1;" d="M 104.6875 19 C 107.644531 19 110.601562 19 113.644531 19 C 113.644531 19.386719 113.644531 19.773438 113.644531 20.171875 C 111.6875 20.171875 109.726562 20.171875 107.707031 20.171875 C 107.707031 20.675781 107.707031 21.179688 107.707031 21.695312 C 109.496094 21.695312 111.285156 21.695312 113.125 21.695312 C 113.125 22.039062 113.125 22.378906 113.125 22.730469 C 111.335938 22.730469 109.550781 22.730469 107.707031 22.730469 C 107.707031 23.234375 107.707031 23.738281 107.707031 24.257812 C 109.738281 24.257812 111.765625 24.257812 113.855469 24.257812 C 113.855469 24.628906 113.855469 25 113.855469 25.382812 C 110.828125 25.382812 107.804688 25.382812 104.6875 25.382812 C 104.6875 23.277344 104.6875 21.171875 104.6875 19 Z M 104.6875 19 "/>
<path style=" stroke:none;fill-rule:nonzero;fill:rgb(26.274511%,26.274511%,85.09804%);fill-opacity:1;" d="M 60.519531 19.359375 C 60.890625 19.488281 61.25 19.613281 61.5625 19.765625 C 61.5625 19.953125 61.371094 20.003906 61.074219 20.140625 C 60.703125 20.308594 60.34375 20.480469 60 20.664062 C 59.859375 20.605469 59.859375 20.605469 59.714844 20.546875 C 58.753906 20.191406 57.582031 20.007812 56.328125 20.019531 C 55.730469 20.050781 55.210938 20.152344 54.785156 20.335938 C 54.523438 20.53125 54.492188 20.667969 54.582031 20.890625 C 54.820312 21.148438 55.261719 21.238281 55.820312 21.351562 C 56.382812 21.457031 56.964844 21.539062 57.546875 21.628906 C 59.121094 21.867188 60.832031 22.144531 61.667969 22.820312 C 62.058594 23.226562 62.0625 23.835938 61.707031 24.246094 C 61.019531 24.835938 59.988281 25.15625 58.578125 25.378906 C 56.625 25.636719 54.507812 25.472656 52.738281 25.066406 C 51.378906 24.710938 51.378906 24.710938 51.167969 24.484375 C 51.144531 24.390625 51.144531 24.390625 51.25 24.320312 C 51.304688 24.296875 51.359375 24.273438 51.417969 24.253906 C 51.476562 24.226562 51.535156 24.203125 51.597656 24.175781 C 51.660156 24.148438 51.726562 24.125 51.789062 24.097656 C 51.882812 24.058594 51.882812 24.058594 51.976562 24.019531 C 52.277344 23.894531 52.574219 23.777344 52.917969 23.671875 C 53.238281 23.734375 53.457031 23.808594 53.710938 23.914062 C 54.558594 24.238281 55.542969 24.386719 56.671875 24.402344 C 57.433594 24.382812 58.039062 24.335938 58.644531 24.125 C 59.027344 23.933594 59.113281 23.753906 59.101562 23.507812 C 59.027344 23.3125 58.789062 23.210938 58.4375 23.089844 C 57.664062 22.910156 56.828125 22.792969 56.003906 22.667969 C 54.425781 22.429688 52.753906 22.164062 51.980469 21.472656 C 51.574219 21.050781 51.605469 20.472656 51.984375 20.050781 C 52.585938 19.53125 53.5625 19.210938 54.832031 19.027344 C 56.652344 18.828125 58.929688 18.902344 60.519531 19.359375 Z M 60.519531 19.359375 "/>
<path style=" stroke:none;fill-rule:nonzero;fill:rgb(26.274511%,26.274511%,85.09804%);fill-opacity:1;" d="M 123.269531 21.125 C 124.03125 21.351562 124.558594 21.652344 124.746094 22.046875 C 124.796875 22.203125 124.804688 22.355469 124.804688 22.515625 C 124.804688 22.546875 124.804688 22.578125 124.804688 22.609375 C 124.804688 22.710938 124.800781 22.8125 124.800781 22.914062 C 124.800781 22.988281 124.800781 23.058594 124.800781 23.128906 C 124.800781 23.316406 124.800781 23.5 124.796875 23.6875 C 124.796875 23.878906 124.796875 24.070312 124.796875 24.261719 C 124.796875 24.632812 124.792969 25.007812 124.792969 25.382812 C 123.964844 25.382812 123.140625 25.382812 122.292969 25.382812 C 122.222656 25.246094 122.152344 25.113281 122.082031 24.976562 C 121.984375 25.015625 121.886719 25.058594 121.785156 25.101562 C 120.824219 25.457031 119.652344 25.496094 118.4375 25.46875 C 117.578125 25.429688 116.800781 25.28125 116.210938 25.007812 C 115.527344 24.621094 115.507812 24.1875 115.625 23.71875 C 115.789062 23.417969 116.289062 23.210938 116.875 23.046875 C 118.402344 22.675781 120.378906 22.710938 122.082031 22.730469 C 122.050781 22.328125 122.050781 22.328125 121.667969 21.96875 C 121.042969 21.753906 120.464844 21.703125 119.6875 21.742188 C 119.199219 21.804688 118.863281 21.890625 118.601562 22.078125 C 118.429688 22.242188 118.429688 22.242188 118.332031 22.414062 C 117.769531 22.386719 117.261719 22.332031 116.726562 22.257812 C 116.648438 22.246094 116.574219 22.234375 116.496094 22.222656 C 116.308594 22.199219 116.121094 22.171875 115.9375 22.148438 C 116.082031 21.75 116.417969 21.449219 117.140625 21.191406 C 118.921875 20.679688 121.40625 20.675781 123.269531 21.125 Z M 123.269531 21.125 "/>
<path style=" stroke:none;fill-rule:nonzero;fill:rgb(26.666668%,26.274511%,85.09804%);fill-opacity:1;" d="M 98.113281 20.824219 C 98.214844 20.824219 98.3125 20.824219 98.417969 20.824219 C 99.152344 20.832031 99.769531 20.867188 100.417969 21.023438 C 100.5 21.042969 100.582031 21.0625 100.667969 21.082031 C 101.773438 21.367188 102.308594 21.824219 102.722656 22.335938 C 102.832031 22.542969 102.84375 22.734375 102.839844 22.945312 C 102.839844 23.003906 102.839844 23.003906 102.839844 23.0625 C 102.839844 23.101562 102.839844 23.136719 102.839844 23.175781 C 102.839844 23.207031 102.839844 23.242188 102.839844 23.277344 C 102.8125 23.359375 102.8125 23.359375 102.605469 23.449219 C 102.320312 23.460938 102.320312 23.460938 101.957031 23.460938 C 101.753906 23.460938 101.753906 23.460938 101.546875 23.460938 C 101.398438 23.457031 101.25 23.457031 101.101562 23.457031 C 100.953125 23.457031 100.800781 23.457031 100.648438 23.457031 C 100.25 23.457031 99.851562 23.457031 99.449219 23.457031 C 99.042969 23.453125 98.636719 23.453125 98.230469 23.453125 C 97.429688 23.453125 96.632812 23.449219 95.832031 23.449219 C 95.867188 23.515625 95.898438 23.578125 95.929688 23.644531 C 95.949219 23.679688 95.96875 23.71875 95.984375 23.753906 C 96.167969 24.078125 96.652344 24.269531 97.292969 24.4375 C 98.085938 24.550781 99.023438 24.523438 99.773438 24.367188 C 100.113281 24.269531 100.417969 24.148438 100.730469 24.03125 C 101.3125 24.210938 101.898438 24.390625 102.5 24.570312 C 102.164062 24.9375 101.59375 25.09375 100.789062 25.261719 C 99.304688 25.535156 97.574219 25.582031 96.042969 25.335938 C 94.789062 25.105469 93.953125 24.710938 93.414062 24.175781 C 93.199219 23.9375 93.042969 23.707031 93.019531 23.449219 C 93.015625 23.398438 93.011719 23.347656 93.003906 23.296875 C 92.96875 22.664062 93.246094 22.074219 94.195312 21.574219 C 95.300781 21.070312 96.507812 20.816406 98.113281 20.824219 Z M 98.113281 20.824219 "/>
<path style=" stroke:none;fill-rule:nonzero;fill:rgb(26.666668%,26.666668%,85.09804%);fill-opacity:1;" d="M 68.273438 20.828125 C 68.410156 20.824219 68.410156 20.824219 68.550781 20.824219 C 69.757812 20.828125 70.667969 20.988281 71.5625 21.335938 C 72.519531 21.789062 73.03125 22.347656 73.039062 22.957031 C 73.042969 23.011719 73.042969 23.066406 73.042969 23.121094 C 73.019531 23.269531 73.019531 23.269531 72.8125 23.449219 C 70.578125 23.449219 68.34375 23.449219 66.042969 23.449219 C 66.382812 24.046875 66.382812 24.046875 67.371094 24.421875 C 68.035156 24.539062 68.851562 24.535156 69.539062 24.449219 C 69.890625 24.378906 70.113281 24.300781 70.390625 24.179688 C 70.46875 24.144531 70.546875 24.113281 70.625 24.078125 C 71.054688 24.078125 71.121094 24.085938 71.445312 24.1875 C 71.519531 24.207031 71.59375 24.230469 71.671875 24.253906 C 71.746094 24.277344 71.824219 24.300781 71.902344 24.324219 C 71.980469 24.347656 72.054688 24.371094 72.136719 24.398438 C 72.328125 24.453125 72.519531 24.511719 72.707031 24.570312 C 72.242188 25 71.238281 25.214844 70.265625 25.378906 C 68.898438 25.574219 67.253906 25.527344 65.945312 25.277344 C 64.679688 25 63.914062 24.5625 63.4375 23.988281 C 63 23.394531 63.042969 22.621094 63.644531 22.054688 C 64.394531 21.445312 65.402344 21.082031 66.929688 20.871094 C 67.378906 20.824219 67.816406 20.824219 68.273438 20.828125 Z M 68.273438 20.828125 "/>
<path style=" stroke:none;fill-rule:nonzero;fill:rgb(26.666668%,26.274511%,85.09804%);fill-opacity:1;" d="M 135.3125 20.890625 C 136.273438 20.890625 137.238281 20.890625 138.230469 20.890625 C 138.648438 21.34375 139.050781 21.800781 139.433594 22.265625 C 139.472656 22.3125 139.511719 22.363281 139.554688 22.414062 C 139.722656 22.617188 139.890625 22.820312 140.054688 23.019531 C 140.179688 23.171875 140.304688 23.320312 140.429688 23.472656 C 140.464844 23.519531 140.503906 23.5625 140.542969 23.613281 C 140.578125 23.652344 140.613281 23.695312 140.648438 23.738281 C 140.679688 23.777344 140.710938 23.8125 140.742188 23.851562 C 140.824219 23.949219 140.824219 23.949219 141.042969 24.03125 C 141.074219 23.984375 141.074219 23.984375 141.109375 23.9375 C 141.324219 23.640625 141.539062 23.339844 141.753906 23.042969 C 141.863281 22.886719 141.972656 22.734375 142.085938 22.582031 C 142.191406 22.433594 142.296875 22.285156 142.402344 22.136719 C 142.464844 22.050781 142.523438 21.96875 142.582031 21.886719 C 142.621094 21.832031 142.660156 21.78125 142.695312 21.726562 C 142.746094 21.660156 142.746094 21.660156 142.796875 21.589844 C 142.96875 21.355469 143.152344 21.121094 143.332031 20.890625 C 144.296875 20.890625 145.257812 20.890625 146.25 20.890625 C 145.898438 21.394531 145.898438 21.394531 145.726562 21.589844 C 145.6875 21.636719 145.652344 21.679688 145.609375 21.726562 C 145.570312 21.773438 145.527344 21.820312 145.488281 21.867188 C 145.421875 21.941406 145.421875 21.941406 145.355469 22.019531 C 145.214844 22.183594 145.070312 22.34375 144.929688 22.507812 C 144.878906 22.566406 144.832031 22.621094 144.78125 22.675781 C 143.925781 23.660156 143.054688 24.640625 142.15625 25.613281 C 142.089844 25.6875 142.023438 25.761719 141.957031 25.835938 C 141.40625 26.433594 140.800781 26.898438 139.40625 27.183594 C 138.871094 27.273438 138.386719 27.277344 137.820312 27.277344 C 137.734375 27.277344 137.652344 27.277344 137.566406 27.277344 C 137.113281 27.277344 136.765625 27.269531 136.355469 27.179688 C 136.339844 26.859375 136.378906 26.550781 136.457031 26.234375 C 136.566406 26.234375 136.671875 26.238281 136.78125 26.238281 C 136.921875 26.242188 137.066406 26.242188 137.207031 26.242188 C 137.277344 26.242188 137.347656 26.246094 137.417969 26.246094 C 137.890625 26.25 138.15625 26.214844 138.542969 26.101562 C 138.609375 26.101562 138.679688 26.101562 138.75 26.101562 C 138.777344 26.070312 138.804688 26.039062 138.835938 26.007812 C 138.957031 25.875 138.957031 25.875 139.132812 25.726562 C 139.417969 25.382812 139.082031 25.074219 138.785156 24.753906 C 138.746094 24.710938 138.707031 24.667969 138.667969 24.625 C 138.539062 24.484375 138.410156 24.34375 138.28125 24.203125 C 138.191406 24.105469 138.101562 24.007812 138.015625 23.910156 C 137.832031 23.707031 137.648438 23.503906 137.464844 23.304688 C 137.070312 22.875 136.6875 22.445312 136.300781 22.011719 C 136.1875 21.882812 136.070312 21.753906 135.957031 21.625 C 135.886719 21.546875 135.816406 21.46875 135.746094 21.390625 C 135.710938 21.355469 135.679688 21.320312 135.648438 21.285156 C 135.53125 21.152344 135.414062 21.023438 135.3125 20.890625 Z M 135.3125 20.890625 "/>
<path style=" stroke:none;fill-rule:nonzero;fill:rgb(26.274511%,25.882354%,85.09804%);fill-opacity:1;" d="M 133.652344 21.152344 C 134.03125 21.269531 134.265625 21.382812 134.480469 21.5625 C 134.480469 21.695312 134.480469 21.695312 134.320312 21.769531 C 134.246094 21.796875 134.175781 21.820312 134.101562 21.847656 C 133.71875 21.984375 133.367188 22.128906 133.019531 22.28125 C 132.664062 22.230469 132.601562 22.1875 132.375 22.0625 C 131.933594 21.839844 131.550781 21.761719 130.878906 21.730469 C 130.363281 21.722656 130 21.730469 129.582031 21.875 C 129.339844 21.964844 129.339844 21.964844 129.335938 22.117188 C 129.339844 22.28125 129.339844 22.28125 129.546875 22.375 C 129.835938 22.476562 130.070312 22.507812 130.433594 22.550781 C 130.558594 22.5625 130.683594 22.578125 130.8125 22.59375 C 130.945312 22.609375 131.074219 22.621094 131.210938 22.636719 C 133.546875 22.902344 133.546875 22.902344 134.21875 23.246094 C 134.285156 23.277344 134.351562 23.308594 134.417969 23.34375 C 134.875 23.636719 134.867188 23.960938 134.792969 24.304688 C 134.578125 24.683594 134.105469 24.972656 133.351562 25.191406 C 132.054688 25.515625 130.292969 25.574219 128.847656 25.417969 C 128.675781 25.390625 128.503906 25.367188 128.332031 25.335938 C 128.242188 25.320312 128.15625 25.304688 128.0625 25.289062 C 127.398438 25.160156 126.9375 24.984375 126.457031 24.75 C 126.632812 24.566406 126.941406 24.433594 127.253906 24.292969 C 127.304688 24.265625 127.359375 24.242188 127.414062 24.214844 C 127.546875 24.15625 127.679688 24.09375 127.8125 24.03125 C 128.214844 24.117188 128.570312 24.21875 128.9375 24.328125 C 129.652344 24.527344 130.410156 24.5625 131.25 24.527344 C 131.679688 24.457031 131.828125 24.421875 132.082031 24.257812 C 132.136719 24.125 132.136719 24.125 132.082031 23.988281 C 131.789062 23.828125 131.523438 23.777344 131.074219 23.722656 C 130.953125 23.707031 130.835938 23.691406 130.710938 23.675781 C 130.507812 23.652344 130.300781 23.628906 130.09375 23.601562 C 127.679688 23.324219 127.679688 23.324219 126.980469 22.867188 C 126.617188 22.558594 126.554688 22.261719 126.667969 21.921875 C 127.023438 21.460938 127.582031 21.207031 128.5625 20.988281 C 130.089844 20.667969 132.234375 20.777344 133.652344 21.152344 Z M 133.652344 21.152344 "/>
<path style=" stroke:none;fill-rule:nonzero;fill:rgb(26.666668%,26.274511%,85.09804%);fill-opacity:1;" d="M 81.980469 20.890625 C 82.941406 20.890625 83.902344 20.890625 84.894531 20.890625 C 85.511719 21.554688 86.0625 22.234375 86.601562 22.914062 C 86.730469 23.074219 86.855469 23.234375 86.984375 23.394531 C 87.0625 23.496094 87.144531 23.59375 87.222656 23.691406 C 87.257812 23.738281 87.292969 23.78125 87.328125 23.828125 C 87.359375 23.867188 87.390625 23.90625 87.421875 23.945312 C 87.484375 24.03125 87.484375 24.03125 87.605469 24.078125 C 87.621094 24.050781 87.640625 24.027344 87.660156 24 C 88.371094 22.976562 89.082031 21.957031 89.792969 20.933594 C 90.753906 20.933594 91.714844 20.933594 92.707031 20.933594 C 92.222656 21.570312 91.714844 22.203125 91.179688 22.835938 C 91.105469 22.921875 91.035156 23.007812 90.960938 23.089844 C 90.507812 23.625 90.050781 24.160156 89.589844 24.691406 C 89.5625 24.722656 89.535156 24.75 89.507812 24.78125 C 89.082031 25.273438 89.082031 25.273438 88.957031 25.382812 C 87.925781 25.382812 86.894531 25.382812 85.832031 25.382812 C 85.078125 24.527344 84.332031 23.667969 83.59375 22.8125 C 83.460938 22.65625 83.328125 22.503906 83.195312 22.347656 C 83.089844 22.226562 82.984375 22.105469 82.882812 21.984375 C 82.808594 21.898438 82.734375 21.8125 82.664062 21.730469 C 82.617188 21.679688 82.574219 21.625 82.527344 21.574219 C 82.492188 21.527344 82.453125 21.484375 82.414062 21.4375 C 82.261719 21.257812 82.121094 21.074219 81.980469 20.890625 Z M 81.980469 20.890625 "/>
<path style=" stroke:none;fill-rule:nonzero;fill:rgb(26.274511%,26.274511%,85.09804%);fill-opacity:1;" d="M 80.34375 20.839844 C 80.476562 20.839844 80.605469 20.839844 80.742188 20.839844 C 80.890625 20.84375 80.890625 20.84375 81.042969 20.84375 C 81.050781 21.238281 81.042969 21.621094 80.9375 22.011719 C 80.835938 22.011719 80.730469 22.015625 80.625 22.015625 C 79.859375 22.027344 79.1875 22.042969 78.542969 22.234375 C 78.445312 22.265625 78.347656 22.292969 78.25 22.324219 C 77.917969 22.457031 77.730469 22.574219 77.667969 22.773438 C 77.664062 22.820312 77.664062 22.867188 77.664062 22.917969 C 77.660156 22.972656 77.660156 23.027344 77.65625 23.082031 C 77.65625 23.144531 77.65625 23.203125 77.65625 23.261719 C 77.652344 23.324219 77.652344 23.382812 77.648438 23.445312 C 77.644531 23.605469 77.640625 23.765625 77.636719 23.925781 C 77.636719 24.089844 77.628906 24.253906 77.625 24.417969 C 77.617188 24.738281 77.609375 25.058594 77.605469 25.382812 C 76.710938 25.382812 75.816406 25.382812 74.894531 25.382812 C 74.894531 23.914062 74.894531 22.445312 74.894531 20.933594 C 75.722656 20.933594 76.546875 20.933594 77.394531 20.933594 C 77.464844 21.15625 77.535156 21.378906 77.605469 21.609375 C 77.691406 21.546875 77.777344 21.484375 77.863281 21.421875 C 78.476562 21.027344 79.238281 20.828125 80.34375 20.839844 Z M 80.34375 20.839844 "/>
<path style=" stroke:none;fill-rule:nonzero;fill:rgb(22.745098%,22.352941%,84.705883%);fill-opacity:1;" d="M 104.6875 19 C 107.644531 19 110.601562 19 113.644531 19 C 113.644531 19.371094 113.644531 19.742188 113.644531 20.125 C 111.6875 20.125 109.726562 20.125 107.707031 20.125 C 107.707031 20.109375 107.707031 20.09375 107.707031 20.078125 C 109.632812 20.078125 111.558594 20.078125 113.542969 20.078125 C 113.542969 19.738281 113.542969 19.398438 113.542969 19.046875 C 110.6875 19.046875 107.835938 19.046875 104.894531 19.046875 C 104.894531 21.109375 104.894531 23.167969 104.894531 25.289062 C 107.816406 25.289062 110.738281 25.289062 113.75 25.289062 C 113.75 24.964844 113.75 24.640625 113.75 24.304688 C 113.5625 24.304688 113.378906 24.304688 113.1875 24.304688 C 112.574219 24.304688 111.964844 24.304688 111.351562 24.304688 C 110.980469 24.304688 110.609375 24.304688 110.238281 24.304688 C 109.8125 24.308594 109.386719 24.308594 108.957031 24.308594 C 108.757812 24.308594 108.757812 24.308594 108.554688 24.308594 C 108.367188 24.308594 108.367188 24.308594 108.179688 24.308594 C 108.015625 24.308594 108.015625 24.308594 107.851562 24.308594 C 107.605469 24.304688 107.605469 24.304688 107.5 24.257812 C 107.488281 24.144531 107.484375 24.035156 107.484375 23.921875 C 107.484375 23.871094 107.484375 23.871094 107.484375 23.820312 C 107.484375 23.746094 107.484375 23.675781 107.488281 23.605469 C 107.488281 23.496094 107.488281 23.386719 107.484375 23.273438 C 107.484375 23.207031 107.484375 23.136719 107.484375 23.066406 C 107.484375 23.035156 107.484375 23 107.484375 22.96875 C 107.488281 22.734375 107.488281 22.734375 107.605469 22.6875 C 107.769531 22.679688 107.9375 22.679688 108.105469 22.679688 C 108.210938 22.679688 108.316406 22.679688 108.425781 22.679688 C 108.542969 22.679688 108.65625 22.679688 108.777344 22.679688 C 108.953125 22.679688 108.953125 22.679688 109.132812 22.679688 C 109.511719 22.679688 109.890625 22.683594 110.265625 22.683594 C 110.523438 22.683594 110.777344 22.683594 111.035156 22.683594 C 111.660156 22.683594 112.289062 22.683594 112.917969 22.6875 C 112.917969 22.375 112.917969 22.0625 112.917969 21.742188 C 111.230469 21.742188 109.546875 21.742188 107.8125 21.742188 C 107.8125 21.726562 107.8125 21.710938 107.8125 21.695312 C 109.566406 21.695312 111.320312 21.695312 113.125 21.695312 C 113.125 22.039062 113.125 22.378906 113.125 22.730469 C 111.335938 22.730469 109.550781 22.730469 107.707031 22.730469 C 107.707031 23.234375 107.707031 23.738281 107.707031 24.257812 C 109.738281 24.257812 111.765625 24.257812 113.855469 24.257812 C 113.855469 24.628906 113.855469 25 113.855469 25.382812 C 110.828125 25.382812 107.804688 25.382812 104.6875 25.382812 C 104.6875 23.277344 104.6875 21.171875 104.6875 19 Z M 104.6875 19 "/>
<path style=" stroke:none;fill-rule:nonzero;fill:rgb(98.431373%,98.431373%,99.607843%);fill-opacity:1;" d="M 121.035156 23.492188 C 121.136719 23.492188 121.238281 23.492188 121.339844 23.492188 C 121.589844 23.492188 121.835938 23.492188 122.082031 23.492188 C 122.136719 23.804688 122.164062 24.058594 121.726562 24.320312 C 121.191406 24.558594 120.550781 24.625 119.804688 24.632812 C 119.140625 24.628906 118.828125 24.550781 118.347656 24.359375 C 118.167969 24.207031 118.148438 24.0625 118.230469 23.898438 C 118.441406 23.730469 118.742188 23.597656 119.167969 23.539062 C 119.792969 23.488281 120.402344 23.488281 121.035156 23.492188 Z M 121.035156 23.492188 "/>
<path style=" stroke:none;fill-rule:nonzero;fill:rgb(98.823529%,98.823529%,99.607843%);fill-opacity:1;" d="M 99.035156 21.742188 C 99.523438 21.871094 99.769531 21.988281 100.105469 22.191406 C 100.171875 22.355469 100.242188 22.515625 100.3125 22.6875 C 98.835938 22.6875 97.355469 22.6875 95.832031 22.6875 C 95.9375 22.28125 96.035156 22.109375 96.730469 21.859375 C 97.4375 21.648438 98.226562 21.648438 99.035156 21.742188 Z M 99.035156 21.742188 "/>
<path style=" stroke:none;fill-rule:nonzero;fill:rgb(98.823529%,98.823529%,99.607843%);fill-opacity:1;" d="M 69.582031 21.832031 C 70.191406 22.09375 70.398438 22.320312 70.519531 22.6875 C 69.042969 22.6875 67.566406 22.6875 66.042969 22.6875 C 66.140625 22.296875 66.21875 22.136719 66.867188 21.886719 C 67.671875 21.632812 68.710938 21.609375 69.582031 21.832031 Z M 69.582031 21.832031 "/>
<path style=" stroke:none;fill-rule:nonzero;fill:rgb(99.215686%,98.823529%,99.607843%);fill-opacity:1;" d="M 44.375 17.878906 C 44.824219 17.984375 45.121094 18.125 45.3125 18.328125 C 45.359375 18.582031 45.332031 18.738281 45 18.957031 C 44.488281 19.15625 44.171875 19.199219 43.492188 19.195312 C 43.105469 19.175781 42.890625 19.113281 42.605469 19 C 42.199219 18.757812 42.195312 18.527344 42.292969 18.238281 C 42.699219 17.875 43.527344 17.820312 44.375 17.878906 Z M 44.375 17.878906 "/>
<path style=" stroke:none;fill-rule:nonzero;fill:rgb(98.039216%,98.039216%,99.215686%);fill-opacity:1;" d="M 28.644531 18.867188 C 28.925781 19.050781 29.019531 19.242188 29.15625 19.449219 C 29.265625 19.582031 29.347656 19.628906 29.582031 19.71875 C 29.582031 19.75 29.582031 19.78125 29.582031 19.8125 C 29.984375 19.902344 30.40625 19.96875 30.832031 20.035156 C 30.585938 20.105469 30.390625 20.148438 30.125 20.199219 C 29.515625 20.328125 29.175781 20.523438 28.953125 20.796875 C 28.878906 20.917969 28.808594 21.035156 28.75 21.15625 C 28.578125 21.019531 28.464844 20.882812 28.351562 20.734375 C 28.175781 20.527344 28.03125 20.390625 27.605469 20.257812 C 27.261719 20.191406 26.917969 20.132812 26.5625 20.078125 C 26.792969 19.980469 26.984375 19.945312 27.277344 19.886719 C 27.902344 19.753906 28.171875 19.625 28.40625 19.339844 C 28.515625 19.183594 28.597656 19.03125 28.644531 18.867188 Z M 28.644531 18.867188 "/>
<path style=" stroke:none;fill-rule:nonzero;fill:rgb(96.470588%,96.470588%,98.823529%);fill-opacity:1;" d="M 33.75 17.296875 C 33.921875 17.40625 34.019531 17.488281 34.121094 17.609375 C 34.148438 17.640625 34.171875 17.671875 34.199219 17.703125 C 34.261719 17.777344 34.316406 17.851562 34.375 17.921875 C 34.589844 17.964844 34.589844 17.964844 34.84375 17.992188 C 35.101562 18.023438 35.101562 18.023438 35.3125 18.058594 C 35.347656 18.089844 35.382812 18.117188 35.417969 18.148438 C 35.289062 18.167969 35.160156 18.183594 35.027344 18.203125 C 34.648438 18.265625 34.40625 18.316406 34.167969 18.460938 C 34.042969 18.59375 33.945312 18.730469 33.855469 18.867188 C 33.746094 18.777344 33.648438 18.691406 33.570312 18.597656 C 33.429688 18.441406 33.320312 18.351562 32.96875 18.265625 C 32.710938 18.222656 32.453125 18.183594 32.1875 18.148438 C 32.5 18.058594 32.5 18.058594 32.804688 18.003906 C 33.246094 17.894531 33.460938 17.765625 33.613281 17.558594 C 33.664062 17.46875 33.707031 17.382812 33.75 17.296875 Z M 33.75 17.296875 "/>
<path style=" stroke:none;fill-rule:nonzero;fill:rgb(96.470588%,96.078432%,98.823529%);fill-opacity:1;" d="M 38.542969 24.167969 C 38.75 24.257812 38.75 24.257812 38.875 24.390625 C 39.125 24.574219 39.332031 24.59375 39.792969 24.664062 C 39.792969 24.691406 39.792969 24.722656 39.792969 24.75 C 39.679688 24.769531 39.5625 24.789062 39.445312 24.804688 C 39.066406 24.875 38.933594 24.949219 38.75 25.109375 C 38.679688 25.140625 38.613281 25.171875 38.542969 25.203125 C 38.503906 25.152344 38.46875 25.105469 38.429688 25.054688 C 38.234375 24.851562 37.949219 24.796875 37.5 24.707031 C 37.917969 24.570312 37.917969 24.570312 38.136719 24.511719 C 38.398438 24.414062 38.453125 24.3125 38.542969 24.167969 Z M 38.542969 24.167969 "/>
<path style=" stroke:none;fill-rule:nonzero;fill:rgb(19.607843%,19.215687%,84.705883%);fill-opacity:1;" d="M 66.214844 23.355469 C 66.339844 23.355469 66.460938 23.355469 66.589844 23.355469 C 66.691406 23.355469 66.691406 23.355469 66.796875 23.355469 C 67.023438 23.355469 67.25 23.355469 67.472656 23.355469 C 67.628906 23.355469 67.785156 23.355469 67.941406 23.355469 C 68.355469 23.355469 68.769531 23.355469 69.179688 23.355469 C 69.601562 23.355469 70.019531 23.355469 70.441406 23.355469 C 71.265625 23.359375 72.089844 23.359375 72.917969 23.359375 C 72.882812 23.390625 72.847656 23.417969 72.8125 23.449219 C 70.578125 23.449219 68.34375 23.449219 66.042969 23.449219 C 66.074219 23.597656 66.109375 23.746094 66.144531 23.898438 C 65.898438 23.792969 65.898438 23.75 65.867188 23.605469 C 65.855469 23.566406 65.847656 23.53125 65.839844 23.492188 C 65.835938 23.464844 65.835938 23.433594 65.832031 23.40625 C 65.9375 23.359375 65.9375 23.359375 66.214844 23.355469 Z M 66.214844 23.355469 "/>
<path style=" stroke:none;fill-rule:nonzero;fill:rgb(20.784314%,20.784314%,84.705883%);fill-opacity:1;" d="M 77.394531 22.640625 C 77.429688 22.640625 77.464844 22.640625 77.5 22.640625 C 77.535156 23.542969 77.570312 24.449219 77.605469 25.382812 C 76.710938 25.382812 75.816406 25.382812 74.894531 25.382812 C 74.929688 25.351562 74.964844 25.320312 75 25.289062 C 75.789062 25.289062 76.582031 25.289062 77.394531 25.289062 C 77.394531 24.417969 77.394531 23.542969 77.394531 22.640625 Z M 77.394531 22.640625 "/>
<path style=" stroke:none;fill-rule:nonzero;fill:rgb(19.215687%,19.215687%,83.92157%);fill-opacity:1;" d="M 127.8125 24.03125 C 128.140625 24.09375 128.226562 24.121094 128.4375 24.257812 C 128.230469 24.210938 128.019531 24.167969 127.8125 24.125 C 127.785156 24.148438 127.757812 24.175781 127.730469 24.199219 C 127.59375 24.3125 127.433594 24.398438 127.238281 24.492188 C 127.175781 24.523438 127.113281 24.558594 127.046875 24.589844 C 126.875 24.664062 126.875 24.664062 126.667969 24.664062 C 127.105469 24.898438 127.492188 25.066406 128.125 25.203125 C 128.023438 25.214844 127.917969 25.230469 127.8125 25.246094 C 127.617188 25.199219 127.617188 25.199219 127.410156 25.128906 C 127.335938 25.101562 127.261719 25.078125 127.1875 25.054688 C 126.929688 24.957031 126.691406 24.859375 126.457031 24.75 C 126.632812 24.566406 126.941406 24.433594 127.253906 24.292969 C 127.304688 24.265625 127.359375 24.242188 127.414062 24.214844 C 127.546875 24.15625 127.679688 24.09375 127.8125 24.03125 Z M 127.8125 24.03125 "/>
<path style=" stroke:none;fill-rule:nonzero;fill:rgb(18.82353%,18.82353%,83.92157%);fill-opacity:1;" d="M 27.292969 17.742188 C 27.324219 17.789062 27.359375 17.832031 27.394531 17.878906 C 27.253906 17.945312 27.253906 17.945312 27.082031 18.015625 C 27.015625 18.015625 26.945312 18.015625 26.875 18.015625 C 26.847656 18.039062 26.824219 18.066406 26.796875 18.09375 C 26.648438 18.207031 26.480469 18.285156 26.25 18.375 C 26.179688 18.375 26.113281 18.375 26.042969 18.375 C 26.019531 18.398438 26 18.421875 25.976562 18.449219 C 25.777344 18.59375 25.515625 18.671875 25.207031 18.777344 C 25.140625 18.761719 25.070312 18.746094 25 18.734375 C 25.757812 18.40625 26.511719 18.082031 27.292969 17.742188 Z M 27.292969 17.742188 "/>
<path style=" stroke:none;fill-rule:nonzero;fill:rgb(18.431373%,18.039216%,83.92157%);fill-opacity:1;" d="M 30.519531 16.351562 C 30.554688 16.394531 30.589844 16.441406 30.625 16.484375 C 30.523438 16.5 30.417969 16.515625 30.3125 16.53125 C 30.242188 16.589844 30.171875 16.652344 30.105469 16.710938 C 29.9375 16.78125 29.9375 16.78125 29.753906 16.84375 C 29.472656 16.945312 29.210938 17.046875 28.957031 17.160156 C 28.890625 17.144531 28.820312 17.128906 28.75 17.117188 C 29.335938 16.863281 29.917969 16.609375 30.519531 16.351562 Z M 30.519531 16.351562 "/>
<path style=" stroke:none;fill-rule:nonzero;fill:rgb(20%,19.607843%,83.92157%);fill-opacity:1;" d="M 95.207031 21.25 C 95.0625 21.390625 94.886719 21.488281 94.621094 21.597656 C 94.523438 21.636719 94.523438 21.636719 94.421875 21.679688 C 94.371094 21.699219 94.324219 21.722656 94.269531 21.742188 C 94.203125 21.710938 94.132812 21.683594 94.0625 21.652344 C 94.214844 21.585938 94.367188 21.515625 94.519531 21.449219 C 94.644531 21.394531 94.644531 21.394531 94.773438 21.335938 C 95 21.25 95 21.25 95.207031 21.25 Z M 95.207031 21.25 "/>
<path style=" stroke:none;fill-rule:nonzero;fill:rgb(18.82353%,18.82353%,83.92157%);fill-opacity:1;" d="M 28.644531 17.160156 C 28.679688 17.203125 28.714844 17.25 28.75 17.296875 C 28.507812 17.382812 28.269531 17.472656 28.019531 17.5625 C 28.019531 17.429688 28.019531 17.429688 28.15625 17.359375 C 28.214844 17.335938 28.273438 17.3125 28.332031 17.285156 C 28.390625 17.261719 28.449219 17.238281 28.507812 17.214844 C 28.578125 17.1875 28.578125 17.1875 28.644531 17.160156 Z M 28.644531 17.160156 "/>
<path style=" stroke:none;fill-rule:nonzero;fill:rgb(94.117647%,94.509804%,98.431373%);fill-opacity:1;" d="M 28.644531 18.867188 C 28.867188 19.011719 28.902344 19.058594 28.855469 19.226562 C 28.75 19.257812 28.648438 19.285156 28.542969 19.316406 C 28.574219 19.167969 28.609375 19.019531 28.644531 18.867188 Z M 28.644531 18.867188 "/>
</g>
</svg>
