<?xml version="1.0" encoding="UTF-8"?>
<svg version="1.1" xmlns="http://www.w3.org/2000/svg" width="1536" height="1024">
<path d="M0 0 C506.88 0 1013.76 0 1536 0 C1536 337.92 1536 675.84 1536 1024 C1029.12 1024 522.24 1024 0 1024 C0 686.08 0 348.16 0 0 Z " fill="#FEFEFE" transform="translate(0,0)"/>
<path d="M0 0 C1.19367188 -0.01675781 2.38734375 -0.03351563 3.6171875 -0.05078125 C10.28088738 0.63933466 14.4011559 4.15042737 18.94677734 8.79370117 C19.76739151 9.61365822 19.76739151 9.61365822 20.60458374 10.45018005 C22.39724547 12.24491895 24.17906681 14.05002122 25.9609375 15.85546875 C27.2072386 17.1073696 28.45420708 18.35860639 29.70181274 19.60920715 C32.97338451 22.89219775 36.23584401 26.18409914 39.49645996 29.47796631 C42.82940157 32.8416726 46.17092071 36.19683412 49.51171875 39.55273438 C56.05788139 46.1310089 62.59444511 52.71873324 69.125 59.3125 C70.25075967 58.0268692 71.37638501 56.74112078 72.50195312 55.45532227 C73.12880005 54.73933365 73.75564697 54.02334503 74.40148926 53.28565979 C75.63740953 51.87071753 76.86749741 50.45067264 78.09375 49.02734375 C79.75083165 47.10394541 81.432617 45.20489191 83.125 43.3125 C83.85203125 42.48492187 83.85203125 42.48492187 84.59375 41.640625 C96.52105131 28.86137359 117.0366188 14.63191135 134.5390625 11.94140625 C140.49640068 11.7624756 140.49640068 11.7624756 143.625 14.5 C150.62703079 27.62880774 145.12194826 46.03180338 141.125 59.3125 C136.47419512 73.92550242 129.02165051 87.60260091 118.97265625 99.17578125 C116.99309347 101.37532407 116.99309347 101.37532407 115.125 104.3125 C116.00760498 105.1689209 116.89020996 106.0253418 117.79956055 106.90771484 C121.10192135 110.11889265 124.38714684 113.34715048 127.66772461 116.58056641 C129.08407647 117.97192857 130.50490313 119.35875191 131.93041992 120.74072266 C148.85406093 137.16050745 148.85406093 137.16050745 150.75390625 147.8515625 C150.72103516 149.37910156 150.72103516 149.37910156 150.6875 150.9375 C150.68878906 151.96101562 150.69007813 152.98453125 150.69140625 154.0390625 C149.01097104 163.75081912 142.30038408 169.71083405 135.60839844 176.34667969 C134.52637781 177.43412794 133.44520834 178.52242365 132.36482239 179.61149597 C129.44208372 182.55239457 126.50692468 185.48058975 123.56874752 188.4060545 C120.48751387 191.47712245 117.41609537 194.55798221 114.34307861 197.63726807 C109.18201676 202.80559593 104.01260426 207.96545853 98.83837891 213.12060547 C92.86646036 219.0707574 86.90908801 225.03518185 80.95906615 231.00722384 C75.83931144 236.14516232 70.71176291 241.27522484 65.57768464 246.39885068 C62.51607565 249.45424113 59.45719154 252.51222806 56.40532684 255.57735443 C53.53496592 258.45931653 50.6549067 261.33122932 47.76724815 264.19585609 C46.71252164 265.24531831 45.6611382 266.29815341 44.61348152 267.35467339 C32.62085458 279.43932684 32.62085458 279.43932684 23.78125 280.84375 C15.95280935 280.76624069 10.17341053 280.24075223 4.4140625 274.65234375 C-2.38593404 266.57527469 -3.40232558 256.3863102 -3.25 246.1875 C-3.23984863 245.18831543 -3.22969727 244.18913086 -3.21923828 243.15966797 C-2.71794785 218.88399856 5.04075618 195.77180039 21.125 177.3125 C21.82496094 176.47976563 22.52492188 175.64703125 23.24609375 174.7890625 C37.3074115 158.49698311 37.3074115 158.49698311 45.125 157.3125 C44.795 155.3325 44.465 153.3525 44.125 151.3125 C38.87145701 150.83843769 36.54639926 151.99645055 32.375 155.125 C21.25852238 162.92168691 9.9513088 163.48420274 -3.25 163.4375 C-4.33539063 163.44136719 -5.42078125 163.44523438 -6.5390625 163.44921875 C-12.72591672 163.4417467 -18.74595014 163.15240094 -24.875 162.3125 C-28.36362812 161.84380619 -31.42219541 161.49973631 -34.875 162.3125 C-36.93869141 164.12630811 -38.44368585 166.070782 -40.0859375 168.26953125 C-43.77626637 172.48359675 -49.49322691 174.21431126 -54.875 175.3125 C-57.13892863 175.41989467 -59.40571855 175.47120302 -61.67211914 175.48950195 C-62.68524673 175.49935875 -62.68524673 175.49935875 -63.71884155 175.50941467 C-65.94928109 175.52908605 -68.17965329 175.54080005 -70.41015625 175.55078125 C-71.17607023 175.55485678 -71.94198421 175.5589323 -72.73110771 175.56313133 C-76.78972984 175.58397168 -80.84831842 175.59827889 -84.90698242 175.60766602 C-89.07391549 175.61869125 -93.24030879 175.65305133 -97.40705204 175.69283772 C-100.63210455 175.71914646 -103.85703159 175.72737067 -107.08218193 175.73094749 C-108.61659809 175.73578132 -110.15100987 175.74730248 -111.6853199 175.76598549 C-124.40520186 175.91117423 -135.19008437 174.2398218 -144.875 165.3125 C-150.5669938 159.58614809 -154.875 154.70302488 -154.875 146.3125 C-113.625 146.3125 -72.375 146.3125 -29.875 146.3125 C-29.875 145.6525 -29.875 144.9925 -29.875 144.3125 C-30.80546143 144.28744385 -31.73592285 144.2623877 -32.69458008 144.23657227 C-42.4199869 143.97148144 -52.14455262 143.68507953 -61.86865234 143.37567139 C-63.6259183 143.32034253 -65.38326599 143.26762187 -67.140625 143.21533203 C-85.49588276 142.64173023 -101.73343796 140.25808166 -114.875 126.3125 C-118.00372514 121.95124678 -118.24575 118.08930005 -118.37109375 112.875 C-117.16554788 106.64792841 -111.95588124 102.10805711 -107.60546875 97.8125 C-107.006241 97.21373047 -106.40701324 96.61496094 -105.78962708 95.99804688 C-104.52707906 94.73850529 -103.26211621 93.48138013 -101.99487305 92.2265625 C-100.0735043 90.32340003 -98.1602089 88.41240796 -96.24804688 86.5 C-95.01349026 85.27036185 -93.77847881 84.04118015 -92.54296875 82.8125 C-91.97918015 82.24982422 -91.41539154 81.68714844 -90.83451843 81.10742188 C-87.47012258 77.78225599 -84.00361073 74.65335631 -80.36103821 71.63452148 C-78.69354269 70.22706859 -78.69354269 70.22706859 -76.9375 67.875 C-75.19596182 65.71127075 -73.65655241 64.21731594 -71.55175781 62.45629883 C-66.02345909 57.66754561 -60.92297217 52.4561155 -55.78044891 47.26254845 C-53.95004475 45.41455867 -52.11595167 43.57030234 -50.28082275 41.727005 C-45.06959955 36.49148455 -39.86421584 31.25018568 -34.66308594 26.00463867 C-31.46803142 22.7828124 -28.26813023 19.56586633 -25.06519318 16.35187721 C-23.8496665 15.13014928 -22.63603978 13.90652795 -21.42436981 12.68097496 C-19.73503826 10.97243624 -18.03964369 9.27013877 -16.34277344 7.5690918 C-15.84608154 7.06363831 -15.34938965 6.55818481 -14.83764648 6.03741455 C-9.93678613 1.15029562 -6.90181689 0.02226393 0 0 Z " fill="#4544D9" transform="translate(312.875,352.6875)"/>
<path d="M0 0 C4.35504739 3.81066646 4.80671583 7.7026796 5.2734375 13.25 C6.02057467 40.83660302 -5.81984797 68.57141927 -24 89 C-24.75023437 89.88171875 -25.50046875 90.7634375 -26.2734375 91.671875 C-30.28090622 96.33037654 -30.28090622 96.33037654 -32 98 C-32.66 98 -33.32 98 -34 98 C-33.97679687 99.09957031 -33.95359375 100.19914062 -33.9296875 101.33203125 C-33.65047879 119.71604949 -37.18432571 130.08169708 -48.5625 144.625 C-49.11655518 145.34905029 -49.67061035 146.07310059 -50.24145508 146.8190918 C-54.27614071 151.82710699 -54.27614071 151.82710699 -57.71484375 152.6484375 C-60.3810804 151.89186437 -61.25786132 151.12385685 -63 149 C-63.52416992 147.09887695 -63.52416992 147.09887695 -63.73046875 144.98828125 C-63.81103516 144.23095703 -63.89160156 143.47363281 -63.97460938 142.69335938 C-64.04486328 141.90767578 -64.11511719 141.12199219 -64.1875 140.3125 C-64.26935547 139.51521484 -64.35121094 138.71792969 -64.43554688 137.89648438 C-64.63550845 135.932156 -64.81932254 133.96619588 -65 132 C-67.42225232 134.39441034 -69.78329464 136.73436117 -71.9375 139.375 C-74 141 -74 141 -76.75390625 140.87890625 C-80.69098509 139.81291017 -82.84687773 138.1404992 -86 135.5625 C-87.1283508 134.6565358 -88.2586313 133.75297081 -89.390625 132.8515625 C-89.97521484 132.38395508 -90.55980469 131.91634766 -91.16210938 131.43457031 C-94.87573612 128.53588929 -98.74502206 125.85176344 -102.59375 123.13696289 C-106.91937134 120.08062866 -106.91937134 120.08062866 -108 119 C-108.7208646 113.23308318 -106.50214381 109.0266282 -104 104 C-105.08539063 104.37253906 -106.17078125 104.74507813 -107.2890625 105.12890625 C-108.73414302 105.60747188 -110.17946877 106.08529748 -111.625 106.5625 C-112.69427734 106.9327832 -112.69427734 106.9327832 -113.78515625 107.31054688 C-118.20555098 108.75021672 -121.39782131 109.37512547 -126 108 C-126.66 107.34 -127.32 106.68 -128 106 C-127.05333138 96.12468715 -117.28698568 84.33176455 -109.9375 78.1875 C-103.43118017 73.60705084 -96.62939438 70.47504753 -88.8125 69.0625 C-85.35153726 68.07674848 -84.21593862 67.30116593 -82.08984375 64.3359375 C-81.14910635 62.59826968 -80.21010925 60.85921518 -79.31298828 59.09863281 C-65.4424611 32.17309206 -39.66561308 11.48454993 -11.66796875 0.71875 C-7.70247944 -0.34955166 -4.06026004 -0.7564743 0 0 Z " fill="#8084F5" transform="translate(454,365)"/>
<path d="M0 0 C28.38 0 56.76 0 86 0 C86 8.58 86 17.16 86 26 C67.19 26 48.38 26 29 26 C29 37.22 29 48.44 29 60 C46.16 60 63.32 60 81 60 C81 67.59 81 75.18 81 83 C63.84 83 46.68 83 29 83 C29 94.22 29 105.44 29 117 C48.47 117 67.94 117 88 117 C88 125.25 88 133.5 88 142 C58.96 142 29.92 142 0 142 C0 95.14 0 48.28 0 0 Z " fill="#4746DA" transform="translate(1005,423)"/>
<path d="M0 0 C3.55577896 2.78470535 7.01141715 5.60446118 10 9 C10 13.20756091 8.16978591 14.29670772 5.3125 17.3125 C1.74847833 21.11726599 -1.71608298 24.94983567 -5 29 C-6.36125 27.700625 -6.36125 27.700625 -7.75 26.375 C-16.956309 18.49454888 -28.19993953 14.42000559 -40.25390625 14.6875 C-46.002107 15.3416338 -50.96407664 17.56611628 -55.0625 21.6875 C-57.58965108 26.00811314 -57.88864263 29.11686478 -57 34 C-54.73698825 39.77067996 -50.49442431 41.78602822 -45.140625 44.3046875 C-39.71470072 46.6105659 -34.12229218 48.48453503 -28.5625 50.4375 C-13.45449648 55.7638127 2.99463832 61.98994685 11 77 C14.75973179 86.0151233 14.80527628 99.60259658 11.375 108.75 C4.77621351 121.87835494 -5.10683674 129.02870037 -18.66796875 133.97265625 C-37.40921563 139.65582702 -57.7397305 136.03470763 -74.71875 127 C-87.75677963 119.05301051 -87.75677963 119.05301051 -89.78857422 114.06347656 C-90 112 -90 112 -88.98364258 110.40014648 C-88.45923584 109.89555908 -87.9348291 109.39097168 -87.39453125 108.87109375 C-86.82283203 108.31099609 -86.25113281 107.75089844 -85.66210938 107.17382812 C-85.05173828 106.60083984 -84.44136719 106.02785156 -83.8125 105.4375 C-82.92594727 104.5722168 -82.92594727 104.5722168 -82.02148438 103.68945312 C-79.15092198 100.91489616 -76.28277746 98.28898379 -73 96 C-69.92265016 97.37599563 -67.79946159 98.98604856 -65.375 101.3125 C-57.22421992 108.55763785 -47.7782532 111.88506375 -36.9375 112.25 C-29.62507982 111.78571935 -23.83485928 110.72345751 -18 106 C-14.32496601 101.81806477 -13.50320268 97.79392899 -13.609375 92.34375 C-14.3363598 87.98184121 -16.64242732 85.7033354 -20 83 C-27.41462731 79.00111733 -35.43191803 76.35305043 -43.375 73.625 C-58.52916862 68.27568422 -74.56875716 62.40974775 -82 47 C-85.89329387 37.57630283 -85.60169616 24.75021576 -81.9375 15.3125 C-76.16243819 3.76237637 -66.79816991 -3.32201551 -54.625 -7.4375 C-37.14510088 -11.86497445 -15.27949282 -10.22905644 0 0 Z " fill="#4343D9" transform="translate(581,431)"/>
<path d="M0 0 C7.32624397 5.04937745 12.40228785 11.75599081 14.18821716 20.51101685 C14.66285625 24.03072472 14.74484512 27.39704328 14.73852539 30.94873047 C14.73867142 31.64211014 14.73881744 32.33548981 14.7389679 33.04988098 C14.73827596 35.32234926 14.7305175 37.59473369 14.72265625 39.8671875 C14.72078951 41.45044917 14.71936682 43.03371142 14.71836853 44.61697388 C14.71456349 48.76962906 14.70475051 52.92224886 14.69366455 57.07489014 C14.68340703 61.31815106 14.67886163 65.56141773 14.67382812 69.8046875 C14.66312632 78.11980965 14.64554595 86.43489634 14.625 94.75 C6.705 94.75 -1.215 94.75 -9.375 94.75 C-10.035 91.78 -10.695 88.81 -11.375 85.75 C-12.32375 86.6575 -13.2725 87.565 -14.25 88.5 C-23.47662026 96.43264303 -34.70318204 97.27801081 -46.375 96.75 C-54.60645265 95.86079987 -62.07973186 92.56978999 -67.75 86.4375 C-74.31772425 77.84472744 -74.49405034 68.17469545 -73.375 57.75 C-71.79097213 51.03531582 -66.99719214 46.47390755 -61.375 42.75 C-46.70851145 34.53676641 -27.73980974 35.29117356 -11.375 35.75 C-11.7057802 26.76705317 -11.7057802 26.76705317 -15.375 18.75 C-21.36093563 14.03766769 -26.89589953 12.89033328 -34.375 13.75 C-39.04729047 15.11309353 -42.28897444 17.02899501 -44.8125 21.25 C-46.44583027 24.90544358 -46.44583027 24.90544358 -47.375 28.75 C-52.76892739 28.13334864 -57.65895283 26.87077204 -62.8125 25.1875 C-63.54404297 24.95353516 -64.27558594 24.71957031 -65.02929688 24.47851562 C-66.81280179 23.90732778 -68.59413583 23.32936877 -70.375 22.75 C-68.97949145 13.95829615 -65.77892134 7.25871193 -58.8125 1.5 C-41.73264338 -9.88657108 -17.8689022 -9.9458984 0 0 Z " fill="#4343D9" transform="translate(1183.375,470.25)"/>
<path d="M0 0 C0.97090576 0.00757324 1.94181152 0.01514648 2.94213867 0.02294922 C9.97089116 0.18477412 15.90268812 0.96382676 22.125 4.4375 C22.91777344 4.86160156 23.71054687 5.28570312 24.52734375 5.72265625 C35.1679914 12.07871699 40.2887888 22.28462809 44.24609375 33.66015625 C45.31864309 38.26973497 45.41846903 42.53723272 45.375 47.25 C45.38660156 48.53680664 45.38660156 48.53680664 45.3984375 49.84960938 C45.39585937 50.66880859 45.39328125 51.48800781 45.390625 52.33203125 C45.38836914 53.07300049 45.38611328 53.81396973 45.38378906 54.57739258 C45.125 56.4375 45.125 56.4375 43.125 58.4375 C40.4168396 58.67800903 40.4168396 58.67800903 36.93115234 58.66455078 C34.97935562 58.66432419 34.97935562 58.66432419 32.98812866 58.66409302 C31.56239673 58.65387893 30.13666635 58.64344692 28.7109375 58.6328125 C27.25648187 58.62908295 25.80202373 58.6262357 24.3475647 58.62423706 C20.51701944 58.616596 16.68662554 58.59694357 12.85614014 58.5748291 C8.94838509 58.55438078 5.04060561 58.54523752 1.1328125 58.53515625 C-6.53652738 58.51369802 -14.20574249 58.47955651 -21.875 58.4375 C-21.56635916 59.8870275 -21.25405207 61.33577472 -20.94018555 62.78417969 C-20.76666061 63.5910321 -20.59313568 64.39788452 -20.41435242 65.22918701 C-18.65483624 72.43331236 -13.9998313 76.69454754 -7.875 80.4375 C-0.23826306 82.98307898 8.73738191 82.37118097 15.96484375 78.8984375 C19.22690574 76.692269 22.13501049 74.00034815 25.125 71.4375 C30.735 75.3975 36.345 79.3575 42.125 83.4375 C38.88440703 91.53898243 33.43718413 95.02942565 25.6875 98.75 C11.45902496 104.84095678 -5.16521296 105.9150183 -19.875 100.4375 C-31.88541989 95.30683519 -39.93889819 86.48296473 -45.09375 74.63671875 C-47.15960125 69.3023957 -48.64542165 64.1769587 -48.875 58.4375 C-48.9265625 57.3134375 -48.978125 56.189375 -49.03125 55.03125 C-49.37368975 40.99122016 -46.70766158 27.79246442 -37.61328125 16.671875 C-26.98060307 5.52175094 -15.39473147 -0.16798616 0 0 Z " fill="#4443D9" transform="translate(941.875,463.5625)"/>
<path d="M0 0 C1.31581055 -0.01740234 1.31581055 -0.01740234 2.65820312 -0.03515625 C14.23121743 0.01601404 22.96965817 3.61828799 31.5625 11.375 C40.74282371 21.41402746 45.67753522 33.88658651 45.75 47.4375 C45.76417969 48.64535156 45.77835938 49.85320313 45.79296875 51.09765625 C45.5625 54.375 45.5625 54.375 43.5625 58.375 C22.1125 58.375 0.6625 58.375 -21.4375 58.375 C-18.17362084 71.71997201 -18.17362084 71.71997201 -8.66796875 80.0625 C-2.29841971 82.65036998 5.53994804 82.50862828 12.140625 80.6484375 C15.52674955 79.05876834 17.64526473 77.29223527 20.3125 74.625 C21.055 73.8825 21.7975 73.14 22.5625 72.375 C26.68713057 72.375 27.3093062 72.55015278 30.453125 74.78125 C31.16210938 75.27753906 31.87109375 75.77382813 32.6015625 76.28515625 C33.33117187 76.80980469 34.06078125 77.33445312 34.8125 77.875 C35.55757812 78.39964844 36.30265625 78.92429687 37.0703125 79.46484375 C38.90710291 80.76001647 40.73733549 82.06351973 42.5625 83.375 C38.07615787 92.87265546 28.46468364 97.64058859 19.1171875 101.34375 C5.97462581 105.68441258 -9.80181781 104.61470017 -22.3671875 99.0859375 C-34.51883285 92.92778661 -41.87028759 83.16319475 -46.4375 70.375 C-50.65514886 57.13847937 -50.21307802 39.96236267 -44.4375 27.375 C-37.25352239 13.77167607 -27.56378481 5.69291879 -12.89550781 0.97265625 C-8.60410701 -0.07078328 -4.39557098 -0.05787877 0 0 Z " fill="#4444D9" transform="translate(655.4375,463.625)"/>
<path d="M0 0 C9.24 0 18.48 0 28 0 C32.01766368 10.15441637 35.88261987 20.33914825 39.55078125 30.625 C39.93942352 31.71409668 40.3280658 32.80319336 40.72848511 33.92529297 C42.33750001 38.44060733 43.94319761 42.95707424 45.54321289 47.47558594 C46.72828718 50.81884237 47.92028021 54.15956548 49.11328125 57.5 C49.47472733 58.52689941 49.8361734 59.55379883 50.20857239 60.61181641 C50.54620102 61.55460449 50.88382965 62.49739258 51.23168945 63.46875 C51.52590286 64.29826172 51.82011627 65.12777344 52.12324524 65.98242188 C52.92862534 68.17309218 52.92862534 68.17309218 55 70 C55.32493439 68.95002838 55.32493439 68.95002838 55.65643311 67.87884521 C57.71415357 61.23048333 59.77313493 54.58251309 61.83347702 47.93496323 C62.89226664 44.51870052 63.9505953 41.10229655 65.0078125 37.68554688 C66.03114419 34.37837303 67.05576242 31.07160015 68.0812149 27.76508331 C68.65581783 25.91118193 69.22914195 24.05688434 69.8024292 22.20257568 C70.16250061 21.04227844 70.52257202 19.8819812 70.89355469 18.68652344 C71.35988312 17.18094879 71.35988312 17.18094879 71.83563232 15.6449585 C73.5067604 10.41362769 75.26335118 5.20994645 77 0 C86.24 0 95.48 0 105 0 C101.62427686 11.25241047 101.62427686 11.25241047 99.9855957 15.62524414 C99.61647064 16.61473557 99.24734558 17.60422699 98.86703491 18.623703 C98.4739212 19.66698257 98.0808075 20.71026215 97.67578125 21.78515625 C97.04743881 23.46337212 97.04743881 23.46337212 96.40640259 25.17549133 C95.04551309 28.80591273 93.6793407 32.43431542 92.3125 36.0625 C91.84241405 37.31312425 91.3724541 38.56379587 90.90261841 39.81451416 C82.6873152 61.67965734 74.30712512 83.47899541 65.71221924 105.19793701 C65.06578043 106.83356181 64.42305968 108.47065485 63.78076172 110.10791016 C58.51502577 123.45352947 52.69940066 133.79407134 39.296875 140.08984375 C34.17804647 142.11822308 29.50547335 142.18312813 24.0625 142.1875 C23.26392578 142.19974609 22.46535156 142.21199219 21.64257812 142.22460938 C17.30409295 142.23539269 13.9524748 142.02015379 10 140 C9.86205046 132.93391809 10.25194283 126.02639415 11 119 C12.02480469 119.03480469 13.04960938 119.06960938 14.10546875 119.10546875 C15.46612936 119.13362035 16.8268078 119.16091904 18.1875 119.1875 C18.86103516 119.21263672 19.53457031 119.23777344 20.22851562 119.26367188 C24.75750589 119.32994978 27.30933627 118.57064512 31 116 C31.66 116 32.32 116 33 116 C33.268125 115.319375 33.53625 114.63875 33.8125 113.9375 C35 111 35 111 36.6875 107.6875 C39.39515541 100.08027767 36.20004354 93.18490595 33.34375 86.046875 C32.96910614 85.08880951 32.59446228 84.13074402 32.20846558 83.14364624 C30.98067166 80.00907476 29.7403079 76.87963832 28.5 73.75 C27.64565551 71.57444514 26.79231462 69.39849592 25.93994141 67.22216797 C24.17999768 62.73036022 22.41602352 58.24016659 20.64941406 53.75097656 C16.89230311 44.19177105 13.19217674 34.61060343 9.49536133 25.0279541 C8.38837571 22.15965764 7.27939945 19.29213804 6.16992188 16.42480469 C5.49604753 14.68165849 4.82221689 12.9384954 4.1484375 11.1953125 C3.84203339 10.40385834 3.53562927 9.61240417 3.21994019 8.79696655 C2.09331751 5.8787513 0.98936644 2.96809931 0 0 Z " fill="#4443D9" transform="translate(1299,465)"/>
<path d="M0 0 C3.63732603 2.64107313 5.89200267 5.12294 7.9375 9.125 C7.9375 12.125 7.9375 12.125 6.3984375 13.73828125 C5.71007813 14.29902344 5.02171875 14.85976563 4.3125 15.4375 C0.6458062 18.50395211 -2.72546224 21.7045363 -6.0625 25.125 C-9.50286839 23.97821054 -10.09109918 23.04990463 -12.25 20.25 C-16.48623445 15.30477234 -20.1908981 13.53939164 -26.6171875 12.8515625 C-31.58662482 12.65986314 -35.06169312 12.87434441 -39.0625 16.125 C-41.41063734 18.05667398 -41.41063734 18.05667398 -41.4375 21.5 C-41.38994759 25.08780103 -41.38994759 25.08780103 -39.42431641 27.22875977 C-36.61910072 29.48099362 -34.37435327 30.18806101 -30.8984375 31.08984375 C-29.69316406 31.41533203 -28.48789063 31.74082031 -27.24609375 32.07617188 C-25.98925781 32.40166016 -24.73242188 32.72714844 -23.4375 33.0625 C-0.99887515 38.91248631 -0.99887515 38.91248631 5.4375 46.5625 C6.0665625 47.28308594 6.695625 48.00367188 7.34375 48.74609375 C11.73799993 55.30515799 11.65462693 62.50552638 10.9375 70.125 C8.87016906 78.60575535 4.35122264 85.0335745 -2.875 89.875 C-15.35077258 97.14058403 -32.23401216 98.46505358 -46.125 94.9375 C-47.78773621 94.38153867 -49.43540226 93.77794537 -51.0625 93.125 C-51.92101563 92.7846875 -52.77953125 92.444375 -53.6640625 92.09375 C-60.03165918 89.24660707 -64.45480755 85.31187167 -69.0625 80.125 C-67.4008196 76.00082937 -64.43911982 73.05945961 -61.4375 69.875 C-60.921875 69.32070313 -60.40625 68.76640625 -59.875 68.1953125 C-58.60824965 66.8347288 -57.33592185 65.47934163 -56.0625 64.125 C-52.1991429 65.95131427 -48.7993157 68.27786596 -45.28125 70.6875 C-38.40663207 75.14147781 -31.13994287 75.87242572 -23.0625 75.125 C-18.94974091 73.58271534 -17.50469062 72.78828593 -15.0625 69.125 C-14.56239476 66.16730823 -14.56239476 66.16730823 -15.0625 63.125 C-17.90507043 59.59675099 -20.43478756 58.38647708 -24.75 57.1875 C-25.8946875 56.85621094 -27.039375 56.52492188 -28.21875 56.18359375 C-30.20063797 55.63776891 -32.18275332 55.09267774 -34.16796875 54.55908203 C-57.33754989 48.31431835 -57.33754989 48.31431835 -64.0625 38.125 C-67.52005785 31.32911043 -68.12477236 24.67409951 -67.0625 17.125 C-63.62513571 6.84947483 -58.27320766 1.19791191 -48.875 -3.6875 C-34.21309176 -10.82219236 -13.61459286 -8.34442788 0 0 Z " fill="#4342D9" transform="translate(1283.0625,470.875)"/>
<path d="M0 0 C9.24 0 18.48 0 28 0 C33.92847809 14.86887736 39.19647614 29.91829208 44.375 45.0625 C45.5996773 48.64108688 46.82544339 52.2192809 48.05484009 55.79624939 C48.81333846 58.00325881 49.56910854 60.21120816 50.3218689 62.42018127 C50.65957306 63.4030864 50.99727722 64.38599152 51.34521484 65.39868164 C51.64164886 66.26594376 51.93808289 67.13320587 52.24349976 68.02674866 C52.83532067 69.97102868 52.83532067 69.97102868 54 71 C54.17459747 70.41800842 54.34919495 69.83601685 54.52908325 69.23638916 C61.35272217 46.49092611 68.17636108 23.74546305 75 1 C84.24 1 93.48 1 103 1 C98.32546424 15.1929307 93.44750116 29.28056236 88.3125 43.3125 C87.61573882 45.2224697 86.91904382 47.13246354 86.22241211 49.04248047 C81.88433044 60.92141588 77.50124938 72.78331358 73.0625 84.625 C72.80747711 85.30575592 72.55245422 85.98651184 72.28970337 86.68789673 C68.18873307 97.62253385 68.18873307 97.62253385 67 100 C57.1 100 47.2 100 37 100 C29.75847044 80.96716408 22.58653332 61.91143643 15.50830078 42.81738281 C14.23162257 39.37360069 12.95256376 35.93070773 11.67294312 32.48801804 C10.66640153 29.7790585 9.66124982 27.06958484 8.65649414 24.35996246 C7.96001075 22.48255394 7.26225316 20.60561828 6.56445312 18.72869873 C6.13970703 17.58169495 5.71496094 16.43469116 5.27734375 15.25292969 C4.90859131 14.25896179 4.53983887 13.2649939 4.15991211 12.24090576 C2.70776151 8.1834576 1.36277757 4.0883327 0 0 Z " fill="#4443D9" transform="translate(787,465)"/>
<path d="M0 0 C1.25425781 0.01804687 2.50851562 0.03609375 3.80078125 0.0546875 C5.22970703 0.08949219 5.22970703 0.08949219 6.6875 0.125 C6.79371544 8.87007107 6.70036753 17.42519136 5.6875 26.125 C4.6975 26.15078125 3.7075 26.1765625 2.6875 26.203125 C-4.65926147 26.4831168 -11.10886915 26.78399777 -17.3125 31.125 C-18.240625 31.764375 -19.16875 32.40375 -20.125 33.0625 C-23.30060619 36.05664298 -25.11245927 38.66151267 -25.71122742 43.04206848 C-25.72233047 44.11462387 -25.73343353 45.18717926 -25.74487305 46.29223633 C-25.76466721 47.51312454 -25.78446136 48.73401276 -25.80485535 49.99189758 C-25.81124527 51.30039169 -25.81763519 52.6088858 -25.82421875 53.95703125 C-25.84107512 55.31753655 -25.85922666 56.67802637 -25.87861633 58.03849792 C-25.92601913 61.60748455 -25.95589087 65.17640839 -25.98205566 68.74560547 C-26.01191062 72.39237872 -26.05842388 76.03893583 -26.10351562 79.68554688 C-26.18943787 86.83192105 -26.25529124 93.97832987 -26.3125 101.125 C-34.8925 101.125 -43.4725 101.125 -52.3125 101.125 C-52.3125 68.455 -52.3125 35.785 -52.3125 2.125 C-44.3925 2.125 -36.4725 2.125 -28.3125 2.125 C-27.6525 7.075 -26.9925 12.025 -26.3125 17.125 C-25.4875 15.76375 -24.6625 14.4025 -23.8125 13 C-17.93182459 4.17203574 -10.64005117 -0.19887946 0 0 Z " fill="#4343D9" transform="translate(771.3125,463.875)"/>
<path d="M0 0 C28.38 0 56.76 0 86 0 C86 8.25 86 16.5 86 25 C67.19 25 48.38 25 29 25 C29 24.67 29 24.34 29 24 C47.48 24 65.96 24 85 24 C85 16.41 85 8.82 85 1 C57.61 1 30.22 1 2 1 C2 46.87 2 92.74 2 140 C30.05 140 58.1 140 87 140 C87 132.74 87 125.48 87 118 C85.21795166 118.00523682 83.43590332 118.01047363 81.59985352 118.01586914 C75.72453318 118.03196742 69.84921362 118.04347258 63.97387791 118.05181217 C60.41022578 118.05703995 56.84659743 118.06413569 53.28295898 118.07543945 C49.18993903 118.08834176 45.0969442 118.09322906 41.00390625 118.09765625 C39.07581871 118.10539818 39.07581871 118.10539818 37.10877991 118.11329651 C35.33705666 118.11340981 35.33705666 118.11340981 33.52954102 118.11352539 C31.96067894 118.11685631 31.96067894 118.11685631 30.36012268 118.12025452 C28 118 28 118 27 117 C26.89912788 114.49075847 26.86027968 112.00963616 26.8671875 109.5 C26.86575241 108.37368164 26.86575241 108.37368164 26.86428833 107.22460938 C26.86360662 105.63411373 26.86546028 104.04361533 26.86962891 102.453125 C26.87497733 100.01035345 26.86968366 97.56776579 26.86328125 95.125 C26.86394203 93.58333293 26.8652232 92.04166597 26.8671875 90.5 C26.86516327 89.76458984 26.86313904 89.02917969 26.86105347 88.27148438 C26.88504839 83.11495161 26.88504839 83.11495161 28 82 C29.59610982 81.90666295 31.19633428 81.88254628 32.79516602 81.88647461 C33.81614883 81.88655014 34.83713165 81.88662567 35.88905334 81.88670349 C36.9994548 81.89186478 38.10985626 81.89702606 39.25390625 81.90234375 C40.94978127 81.90446617 40.94978127 81.90446617 42.67991638 81.90663147 C46.30747065 81.91224981 49.93496424 81.92480542 53.5625 81.9375 C56.01497307 81.94251264 58.4674471 81.94707595 60.91992188 81.95117188 C66.94663813 81.9622252 72.97330876 81.97950212 79 82 C79 75.07 79 68.14 79 61 C62.83 61 46.66 61 30 61 C30 60.67 30 60.34 30 60 C46.83 60 63.66 60 81 60 C81 67.59 81 75.18 81 83 C63.84 83 46.68 83 29 83 C29 94.22 29 105.44 29 117 C48.47 117 67.94 117 88 117 C88 125.25 88 133.5 88 142 C58.96 142 29.92 142 0 142 C0 95.14 0 48.28 0 0 Z " fill="#3A39D8" transform="translate(1005,423)"/>
<path d="M0 0 C0.97001953 0.00451172 1.94003906 0.00902344 2.93945312 0.01367188 C5.3138676 0.0253685 7.68815021 0.04175914 10.0625 0.0625 C10.58257105 6.99678061 10.85520765 12.66092364 6.625 18.44140625 C1.4944096 23.76439379 -4.65360296 25.20194778 -11.8125 25.375 C-18.1996208 25.32054221 -21.19172515 23.62522319 -25.8125 19.3125 C-27.51491654 15.90766691 -27.69904462 12.72919634 -26.9375 9.0625 C-24.8866679 5.35147049 -22.01647534 2.38216849 -17.9375 1.0625 C-11.93826616 -0.0340487 -6.08664268 -0.054085 0 0 Z " fill="#FBFBFE" transform="translate(1161.9375,522.9375)"/>
<path d="M0 0 C4.68471533 2.88290174 7.02462974 5.44653611 10.25 10 C10.91 13.63 11.57 17.26 12.25 21 C-1.94 21 -16.13 21 -30.75 21 C-29.75441878 12.03976905 -28.8167363 8.21416048 -22.125 2.6484375 C-15.36123174 -2.05238144 -7.77022475 -2.07205993 0 0 Z " fill="#FCFCFE" transform="translate(950.75,484)"/>
<path d="M0 0 C5.85575469 5.85575469 7.83273727 10.82916089 9 19 C-5.19 19 -19.38 19 -34 19 C-33.03458666 10.31127995 -32.29806381 6.77843801 -26.0625 1.25 C-18.36259163 -4.40707554 -8.37429857 -4.99093241 0 0 Z " fill="#FCFCFE" transform="translate(668,486)"/>
<path d="M0 0 C4.2952391 2.34562703 7.14410362 5.47300042 9 10 C9.45334816 15.62151717 9.18933562 19.16100802 6 24 C1.0751504 28.44437647 -1.95161487 29.3563486 -8.45703125 29.28125 C-12.19180418 28.86818756 -14.23941828 27.49125668 -17 25 C-20.87224199 19.59557593 -20.94243568 14.44870343 -20 8 C-16.09870348 -0.09673842 -8.12888623 -1.33185142 0 0 Z " fill="#FDFCFE" transform="translate(426,398)"/>
<path d="M0 0 C2.70053016 4.05079523 3.60518649 8.30528583 4.90234375 12.96875 C5.9600626 15.88971025 6.74911303 16.99921158 9 19 C9 19.66 9 20.32 9 21 C12.84700632 23.08379509 16.90054429 24.49686624 21 26 C18.63712789 27.57524807 16.7491068 28.54376952 14.1875 29.625 C8.35843025 32.55025008 5.10253567 36.84217141 2.96484375 42.96484375 C2.22669427 45.63248162 1.56760315 48.29143758 1 51 C-0.63701978 47.93509512 -1.73697162 44.86231261 -2.8125 41.5625 C-4.50739651 36.92772846 -5.88795607 33.94994456 -10 31 C-13.27440779 29.48099669 -16.59146623 28.18471368 -20 27 C-17.80021661 24.80021661 -15.94349514 23.97129526 -13.125 22.6875 C-7.15360512 19.7232824 -4.53914312 16.83281106 -2.3125 10.5625 C-1.23843435 7.07178663 -0.46529127 3.62927189 0 0 Z " fill="#FAFAFD" transform="translate(275,420)"/>
<path d="M0 0 C1.63729107 2.4559366 2.58025878 4.28469444 3.5625 7 C3.81128906 7.680625 4.06007813 8.36125 4.31640625 9.0625 C4.89496821 10.7023099 5.45011724 12.35035173 6 14 C8.06758629 14.95001288 8.06758629 14.95001288 10.5 15.5625 C12.96875 16.25390625 12.96875 16.25390625 15 17 C15.33 17.66 15.66 18.32 16 19 C14.7625 19.4125 13.525 19.825 12.25 20.25 C8.63088602 21.64147592 6.30141385 22.76097309 4 26 C2.8196569 28.9534126 1.86306927 31.94002713 1 35 C-0.02370295 33.02319431 -0.9651951 31.09684842 -1.71875 29 C-3.09188308 25.48477931 -4.12721573 23.49402883 -7.484375 21.59375 C-9.96860136 20.6112876 -12.43501692 19.74404089 -15 19 C-12 17 -12 17 -9.0625 15.75 C-4.8276353 13.33007731 -2.79086916 10.49393401 -1.3125 5.83203125 C-0.82037541 3.90112573 -0.40371843 1.95130576 0 0 Z " fill="#F6F6FC" transform="translate(324,385)"/>
<path d="M0 0 C2 2 2 2 3.1875 4.9375 C5.6119881 9.03404887 7.57746973 9.49800859 12 11 C12 11.66 12 12.32 12 13 C10.906875 13.391875 9.81375 13.78375 8.6875 14.1875 C5.0533939 15.72613363 3.74676654 17.41453183 2 21 C1.34 21.66 0.68 22.32 0 23 C-0.350625 21.9275 -0.70125 20.855 -1.0625 19.75 C-2.93898874 15.25917985 -5.70074169 14.02795203 -10 12 C-6 9 -6 9 -3.875 7.6875 C-1.37571039 5.43813935 -0.85292563 3.19847111 0 0 Z " fill="#F6F5FC" transform="translate(370,538)"/>
<path d="M0 0 C1.18802719 0.00222061 2.37605438 0.00444122 3.6000824 0.00672913 C4.58053528 0.00651009 4.58053528 0.00651009 5.58079529 0.00628662 C7.75058766 0.00698569 9.92029517 0.01477774 12.09007263 0.02259827 C13.59079949 0.02446247 15.09152696 0.02588636 16.59225464 0.02688599 C20.54934865 0.03071099 24.50640616 0.04054112 28.46348572 0.05158997 C32.49851488 0.06180446 36.53354991 0.06638369 40.56858826 0.07142639 C48.49113108 0.08216341 56.41364419 0.09923962 64.33616638 0.12025452 C64.00616638 0.78025452 63.67616638 1.44025452 63.33616638 2.12025452 C41.88616638 2.12025452 20.43616638 2.12025452 -1.66383362 2.12025452 C-1.33383362 5.42025452 -1.00383362 8.72025452 -0.66383362 12.12025452 C-3.03938523 9.7447029 -3.0321822 8.81728458 -3.35133362 5.55775452 C-3.43770081 4.75209045 -3.52406799 3.94642639 -3.61305237 3.11634827 C-3.62981018 2.45763733 -3.64656799 1.79892639 -3.66383362 1.12025452 C-2.66383362 0.12025452 -2.66383362 0.12025452 0 0 Z " fill="#3231D8" transform="translate(635.6638336181641,519.8797454833984)"/>
<path d="M0 0 C0.33 0 0.66 0 1 0 C1.33 20.13 1.66 40.26 2 61 C-6.58 61 -15.16 61 -24 61 C-23.67 60.34 -23.34 59.68 -23 59 C-15.41 59 -7.82 59 0 59 C0 39.53 0 20.06 0 0 Z " fill="#3535D8" transform="translate(743,504)"/>
<path d="M0 0 C3.16115776 1.36983503 3.9927092 1.9890638 6 5 C4 4 2 3 0 2 C-0.2578125 2.57234375 -0.515625 3.1446875 -0.78125 3.734375 C-2.11365942 6.21128995 -3.65056118 8.1341166 -5.5 10.25 C-6.1084375 10.95640625 -6.716875 11.6628125 -7.34375 12.390625 C-9 14 -9 14 -11 14 C-6.78971649 19.2724523 -3.08589811 23.01915194 3 26 C2.01 26.33 1.02 26.66 0 27 C-1.8671875 25.9609375 -1.8671875 25.9609375 -3.875 24.375 C-4.57367187 23.82328125 -5.27234375 23.2715625 -5.9921875 22.703125 C-8.48543115 20.5882335 -10.759838 18.38017212 -13 16 C-11.3383196 11.87582937 -8.37661982 8.93445961 -5.375 5.75 C-4.859375 5.19570313 -4.34375 4.64140625 -3.8125 4.0703125 C-2.54574965 2.7097288 -1.27342185 1.35434163 0 0 Z " fill="#3131D6" transform="translate(1227,535)"/>
<path d="M0 0 C0.33 0.99 0.66 1.98 1 3 C-0.375 4.5 -0.375 4.5 -2 6 C-2.66 6 -3.32 6 -4 6 C-4.2475 6.5775 -4.495 7.155 -4.75 7.75 C-6.18299988 10.32939979 -7.78424676 12.06121592 -10 14 C-10.66 14 -11.32 14 -12 14 C-12.20625 14.556875 -12.4125 15.11375 -12.625 15.6875 C-14.55000774 18.92501302 -17.03850902 20.68231141 -20 23 C-20.66 22.67 -21.32 22.34 -22 22 C-14.74 14.74 -7.48 7.48 0 0 Z " fill="#3030D6" transform="translate(262,395)"/>
<path d="M0 0 C0.33 0.99 0.66 1.98 1 3 C0.01 3.33 -0.98 3.66 -2 4 C-2.68861117 5.32213345 -3.3531574 6.6569375 -4 8 C-5.5859375 9.5625 -5.5859375 9.5625 -7.375 11 C-10.06542185 13.21299835 -12.58193625 15.4852137 -15 18 C-15.66 17.67 -16.32 17.34 -17 17 C-11.39 11.39 -5.78 5.78 0 0 Z " fill="#2F2ED6" transform="translate(293,364)"/>
<path d="M0 0 C-1.40844718 3.21524305 -3.10344786 5.32183868 -5.625 7.75 C-6.57246094 8.67039062 -6.57246094 8.67039062 -7.5390625 9.609375 C-8.02117188 10.06828125 -8.50328125 10.5271875 -9 11 C-9.66 10.34 -10.32 9.68 -11 9 C-9.54782324 7.49403892 -8.08807139 5.99537896 -6.625 4.5 C-5.40683594 3.24703125 -5.40683594 3.24703125 -4.1640625 1.96875 C-2 0 -2 0 0 0 Z " fill="#3332D6" transform="translate(914,473)"/>
<path d="M0 0 C0.33 0.99 0.66 1.98 1 3 C-1.31 4.98 -3.62 6.96 -6 9 C-6 6 -6 6 -4.6875 4.39453125 C-4.130625 3.87246094 -3.57375 3.35039062 -3 2.8125 C-2.443125 2.28269531 -1.88625 1.75289063 -1.3125 1.20703125 C-0.6628125 0.60955078 -0.6628125 0.60955078 0 0 Z " fill="#3030D6" transform="translate(275,382)"/>
<path d="M0 0 C2.1387261 3.20808915 2.47730962 4.27698497 2 8 C1.01 8.66 0.02 9.32 -1 10 C-0.67 6.7 -0.34 3.4 0 0 Z " fill="#F0F1FB" transform="translate(275,420)"/>
</svg>
